<?xml version="1.0" encoding="UTF-8"?>
<!-- Created with Grafika (https://www.grafika.cc/) -->
<svg xmlns="http://www.w3.org/2000/svg" xmlns:svg="http://www.w3.org/2000/svg" xmlns:xlink="http://www.w3.org/1999/xlink" width="192" height="192" viewBox="0 0 1013.573547363 1013.573608398" preserveAspectRatio="xMidYMid meet">
	<rect transform="matrix(10.959488868713379, 0, 0, 10.959488868713379, 506.7867736816406, 506.78680419921875)" x="-46.241825916" y="-46.241825826" width="92.483651832" height="92.483651652" style="fill:#FAFAFA;" />
	<g id="Frame2" transform="matrix(0.9832376837730408, 0, 0, 0.9832376837730408, 506.7867736816406, 506.7867736816406)">
		<path transform="matrix(0.7915246486663818, -0.33936986327171326, 0.33936986327171326, 0.7915246486663818, -7.1135430335998535, -17.739553451538086)" d="M-243.75,395.725830078 C-258.911560059,392.645690918 -273.966430664,379.731567383 -279.779846191,364.819091797 L-283.291015625,355.812438965 L-282.985778809,64.124938965 C-282.817871094,-96.303161621 -282.513305664,-255.366073608 -282.309020996,-289.348205566 L-281.9375,-351.133850098 L-276.582885742,-362.009094238 C-270.479614258,-374.404846191 -262.99230957,-381.391357422 -250.998779297,-385.882019043 L-242.810119629,-388.948059082 L15.866333008,-389.505279541 L274.542907715,-390.0625 L279.05267334,-385.55682373 L283.562438965,-381.051147461 L283.562438965,-40.985870361 L283.562438965,299.079406738 L280.623962402,303.56451416 C279.007995605,306.031311035 276.448547363,308.428649902 274.936462402,308.892028809 C269.13079834,310.671142578 267.678039551,312.250488281 264.633117676,320.093505859 C257.364807129,338.815185547 261.27142334,369.579711914 272.114318848,379.007446289 C276.858947754,383.13293457 279.040710449,390.163696289 276.718444824,393.845214844 L275.083312988,396.437438965 L18.510437012,396.659301758 C-122.604675293,396.78137207 -240.621887207,396.36126709 -243.75,395.725830078 ZM251.39263916,377.148864746 C251.616760254,376.924743652 250.767272949,375.266601563 249.504821777,373.464294434 L247.209411621,370.187194824 L33.010986328,369.914855957 C-178.545898438,369.645874023 -232.375,368.881958008 -232.375,366.148803711 C-232.375,365.379455566 -221.954650879,364.73236084 -209.21875,364.7109375 C-196.482788086,364.689453125 -88.938842773,364.706542969 29.767822266,364.748962402 L245.598205566,364.82598877 L245.08026123,360.319213867 L244.562438965,355.812438965 L21.125,355.456359863 C-101.765625,355.260498047 -205.603088379,354.577392578 -209.625,353.938171387 L-216.9375,352.776184082 L-208.8125,351.592895508 C-204.34375,350.942077637 -100.689025879,350.34564209 21.53125,350.267333984 L243.749938965,350.124938965 L243.749938965,345.496704102 L243.749938965,340.868469238 L6.90625,339.951843262 C-208.594299316,339.117736816 -242.771484375,338.456970215 -237.25,335.231323242 C-236.803100586,334.970214844 -128.212463379,334.375427246 4.0625,333.909484863 L244.562438965,333.062438965 L245.102478027,328.325195313 L245.64263916,323.587890625 L10.935241699,324.630065918 C-210.014648438,325.611206055 -245.375,325.317443848 -245.375,322.500915527 C-245.375,320.838439941 -83.838806152,319.156738281 94.576782227,318.961669922 L248.466247559,318.793457031 L250.059509277,314.223022461 L251.652770996,309.652587891 L209.10760498,309.170043945 C185.707824707,308.904602051 74.304748535,309.053100586 -38.454528809,309.499938965 L-243.471618652,310.312438965 L-250.363891602,315.187438965 C-261.267150879,322.899475098 -263.871765137,327.504882813 -264.597900391,340.355834961 C-265.694030762,359.754821777 -256.421813965,372.72467041 -238.39465332,377.008239746 C-231.080383301,378.746337891 249.657287598,378.884277344 251.39263916,377.148864746 ZM-234,-42.369720459 C-234,-232.815841675 -234.612609863,-376.25 -235.426025391,-376.25 C-240.676391602,-376.25 -240.737182617,-373.383850098 -240.808410645,-122.440307617 C-240.847351074,14.579956055 -240.793884277,164.555358887 -240.68963623,210.838378906 L-240.5,294.989318848 L-237.25,293.249938965 L-234,291.510559082 L-234,-42.369720459 ZM261.881774902,197.781188965 C262.023010254,149.742126465 262.168151855,2.943725586 262.204406738,-128.437530518 L262.270202637,-367.3125 L20.635131836,-367.724090576 L-221,-368.135681152 L-221,-41.505340576 L-221,285.124938965 L20.3125,285.124938965 L261.624938965,285.124938965 L261.881774902,197.781188965 ZM-215.71875,280.818481445 C-217.33404541,280.150939941 -217.75,214.16583252 -217.75,-41.432342529 L-217.75,-362.84375 L-213.28125,-363.683166504 C-207.294433594,-364.80770874 255.444885254,-363.471679688 256.590148926,-362.326568604 C258.302429199,-360.614257813 257.651428223,280.251953125 255.937438965,280.21307373 C255.043762207,280.192810059 149.012512207,280.50958252 20.3125,280.916992188 C-108.387512207,281.324462891 -214.6015625,281.280090332 -215.71875,280.818481445 ZM248.624938965,-41.500030518 L248.624938965,-355.125 L20.3125,-355.125 L-208,-355.125 L-208,-41.500030518 L-208,272.124938965 L20.3125,272.124938965 L248.624938965,272.124938965 L248.624938965,-41.500030518 ZM-203.205444336,237.593688965 C-203.272033691,213.065979004 -203.228759766,-207.034881592 -203.148254395,-318.15625 L-203.125,-350.25 L20.3125,-350.25 L243.749938965,-350.25 L243.749938965,-41.500030518 L243.749938965,267.249938965 L20.3125,267.249938965 L-203.125,267.249938965 L-203.205444336,237.593688965 ZM-128.799560547,261.355529785 C-124.041809082,260.080383301 -125.721374512,257.501647949 -131.31463623,257.493896484 C-146.816589355,257.472351074 -159.129821777,233.206604004 -150.146728516,220.381408691 C-148.71496582,218.337280273 -147.80090332,216.505126953 -148.115478516,216.310058594 C-148.430114746,216.114929199 -150.104125977,214.882507324 -151.835510254,213.571411133 L-154.983459473,211.187438965 L-153.991821289,213.83807373 C-153.446472168,215.295959473 -154.008666992,219.317810059 -155.241271973,222.77557373 C-160.087646484,236.371032715 -157.502746582,249.874084473 -149.068908691,255.019104004 C-139.082275391,261.11138916 -133.915222168,262.726623535 -128.799560547,261.355529785 ZM182.478149414,258.037841797 C191.709533691,253.319702148 197.386413574,232.096679688 191.75,223.374938965 C190.62298584,221.630981445 190.167663574,223.379699707 190.149902344,229.520874023 C190.102966309,245.6953125 183.753051758,253.594421387 167.375,257.852233887 L160.0625,259.753295898 L164.125,260.918212891 C169.032836914,262.325561523 176.329345703,261.180419922 182.478149414,258.037841797 ZM-179.15625,255.792480469 C-175.357788086,254.150878906 -172.25,252.035339355 -172.25,251.091369629 C-172.25,247.551147461 -166.228271484,249.554748535 -162.756896973,254.249938965 C-160.774597168,256.931213379 -157.970947266,259.124938965 -156.526550293,259.124938965 C-154.541259766,259.124938965 -154.918151855,258.18170166 -158.071044922,255.25970459 C-163.075927734,250.621337891 -165.383911133,238.700073242 -162.865539551,230.494567871 C-161.621948242,226.442443848 -161.672485352,225.029968262 -163.058349609,225.114135742 C-165.983093262,225.291931152 -171.688049316,228.007446289 -169.40625,228.135742188 C-166.991577148,228.27154541 -166.699768066,237.690612793 -169,241.249938965 C-170.324890137,243.300170898 -170.579162598,243.203979492 -170.600097656,240.644714355 C-170.620727539,238.124938965 -171.043945313,237.949645996 -173.0625,239.624938965 C-174.403137207,240.737548828 -175.5,242.629516602 -175.5,243.829223633 C-175.5,246.15411377 -181.709106445,250.207458496 -183.115783691,248.800842285 C-183.57635498,248.340209961 -182.051208496,245.469787598 -179.7265625,242.422058105 C-174.596923828,235.696716309 -174.425476074,234.189941406 -178.953491211,235.62701416 C-184.182067871,237.286560059 -181.057556152,233.299804688 -174.898620605,230.453308105 L-169.8125,228.102600098 L-180.539733887,228.782287598 C-186.439697266,229.156066895 -192.47253418,228.78729248 -193.945983887,227.96270752 C-195.419433594,227.138122559 -196.625,227.093139648 -196.625,227.862792969 C-196.625,229.635253906 -190.887817383,235.849853516 -188.524169922,236.637756348 C-187.332763672,237.034851074 -187.627807617,239.009643555 -189.413269043,242.588684082 C-190.88293457,245.534790039 -192.483032227,250.909667969 -192.969055176,254.532836914 L-193.852600098,261.120544434 L-189.957580566,259.948913574 C-187.815307617,259.304504395 -182.954650879,257.434082031 -179.15625,255.792480469 ZM-81.486633301,258.098266602 C-77.797607422,261.436767578 -74.128356934,261.479492188 -71.419433594,258.215332031 C-68.87890625,255.15423584 -71.020324707,247.596435547 -74.75,246.460876465 C-76.717224121,245.861877441 -76.795593262,246.134094238 -75.15625,247.871826172 C-72.736877441,250.436340332 -72.488647461,255.289855957 -74.706726074,256.660644531 C-75.576599121,257.198364258 -77.567260742,256.14465332 -79.130310059,254.319091797 C-82.795837402,250.038085938 -87.828613281,250.11907959 -96.345947266,254.596069336 L-103.1875,258.192260742 L-97.5,259.123840332 C-93.921569824,259.709960938 -90.441223145,259.200927734 -88.114562988,257.751037598 C-84.871704102,255.730163574 -84.056213379,255.772827148 -81.486633301,258.098266602 ZM-48.368652344,256.805969238 C-46.695373535,254.362365723 -46.831298828,246.498291016 -48.565246582,245.426635742 C-49.35736084,244.937072754 -50.41192627,246.090637207 -50.908630371,247.99017334 C-51.661437988,250.868835449 -52.639099121,251.278381348 -56.780944824,250.450012207 L-61.75,249.456176758 L-61.75,253.530456543 C-61.75,259.818786621 -52.056396484,262.191589355 -48.368652344,256.805969238 ZM98.84173584,253.512268066 L99.37097168,249.062683105 L94.53125,250.125671387 C90.692016602,250.968933105 89.186767578,250.468017578 87.25,247.703063965 L84.808654785,244.217468262 L83.732299805,247.608703613 C82.194396973,252.454223633 84.212768555,257.497009277 88.299194336,259.018798828 C93.621582031,261.000915527 98.237792969,258.589782715 98.84173584,253.512268066 ZM119.56829834,258.077270508 C122.831787109,255.938964844 124.363586426,255.778259277 127.229919434,257.273376465 C129.590393066,258.504638672 132.475463867,258.650634766 135.6875,257.70123291 L140.5625,256.260437012 L134.520935059,253.630187988 C126.292785645,250.047973633 119.866577148,250.263671875 117.405456543,254.204528809 C115.037353516,257.996459961 110.5,256.904846191 110.5,252.543212891 C110.5,250.902038574 112.101196289,248.437744141 114.058227539,247.066955566 C118.906188965,243.671264648 116.486633301,241.772766113 111.486450195,245.04901123 C105.98651123,248.652770996 104.646850586,253.725769043 108.167907715,257.616394043 C111.63684082,261.449462891 114.259887695,261.555480957 119.56829834,258.077270508 ZM233.999938965,260.23236084 C233.999938965,256.961914063 228.535583496,242.783752441 226.682312012,241.245666504 C223.56427002,238.657897949 223.566589355,236.374938965 226.687438965,236.374938965 C229.460021973,236.374938965 235.624938965,230.730957031 235.624938965,228.192749023 C235.624938965,227.037719727 234.647644043,227.033691406 232.506286621,228.1796875 C230.79095459,229.09765625 226.134216309,229.402832031 222.15802002,228.857849121 C217.564758301,228.228271484 214.519104004,228.529296875 213.805847168,229.683410645 C213.161804199,230.725463867 213.763366699,231.499938965 215.21661377,231.499938965 C216.609924316,231.499938965 217.749938965,232.231201172 217.749938965,233.124938965 C217.749938965,235.596130371 210.283874512,235.064331055 208.104064941,232.437927246 C206.555969238,230.572570801 206.855285645,230.023132324 209.652770996,229.594177246 C212.230651855,229.198852539 211.212585449,228.384460449 205.685119629,226.42010498 C196.312194824,223.088989258 196.278503418,225.020751953 205.562438965,233.469787598 C213.59564209,240.780639648 214.511779785,242.874938965 209.676818848,242.874938965 C207.841003418,242.874938965 205.477966309,240.971557617 204.129089355,238.406188965 L201.77947998,233.937438965 L200.725280762,238.812438965 C200.145446777,241.493713379 199.297180176,245.515563965 198.840026855,247.749938965 C198.382995605,249.984313965 196.473327637,253.457763672 194.596252441,255.468688965 C192.719177246,257.479614258 191.98236084,259.124938965 192.95880127,259.124938965 C196.985778809,259.124938965 200.139465332,256.827026367 202.574279785,252.118591309 L205.153503418,247.130981445 L207.503967285,250.284240723 C208.796691895,252.018493652 210.612609863,253.228393555 211.539489746,252.972900391 C212.466247559,252.717407227 216.945739746,254.362792969 221.493835449,256.629150391 C228.807556152,260.273803711 233.999938965,261.769775391 233.999938965,260.23236084 ZM216.124938965,246.937438965 C214.025939941,244.703063965 213.004455566,242.874938965 213.855041504,242.874938965 C216.183776855,242.874938965 222.624938965,247.716674805 222.624938965,249.467102051 C222.624938965,252.132019043 220.071472168,251.138183594 216.124938965,246.937438965 ZM-17.875,255.874938965 C-12.678222656,251.809997559 -11.730712891,251.849121094 -8.033325195,256.281188965 L-4.983093262,259.937438965 L-4.929077148,256.174377441 C-4.810546875,247.924499512 -11.061035156,242.220397949 -17.539855957,244.66595459 C-20.600646973,245.821228027 -20.970031738,246.628173828 -19.605285645,249.178283691 C-16.087097168,255.75201416 -26.028930664,257.220336914 -33.138305664,251.177062988 C-34.829956055,249.739013672 -39.37512207,243.65826416 -43.238586426,237.664367676 C-53.600646973,221.588256836 -65.165649414,217.623352051 -79.847229004,225.113342285 C-88.35748291,229.45489502 -87.317077637,230.356811523 -77.519287109,227.131286621 L-69.795837402,224.588623047 L-62.552734375,227.354797363 C-54.097412109,230.58392334 -42.688476563,242.613037109 -41.940185547,249.087890625 C-41.644714355,251.644897461 -40.556945801,253.255554199 -39.30090332,252.99609375 C-38.125793457,252.753356934 -35.28503418,254.03302002 -32.988037109,255.83984375 C-27.762023926,259.950622559 -23.099304199,259.961425781 -17.875,255.874938965 ZM47.941650391,252.624938965 C48.551147461,252.624938965 50.909179688,254.087463379 53.18157959,255.874938965 C58.468444824,260.033569336 65.303283691,260.028808594 69.072509766,255.863830566 C70.695739746,254.070251465 73.147399902,252.790588379 74.520690918,253.020080566 C76.136779785,253.290222168 77.918457031,251.035522461 79.571350098,246.628723145 C84.957336426,232.269226074 97.548583984,224.047180176 111.886657715,225.526977539 C122.225891113,226.594055176 120.877197266,222.438537598 110.328674316,220.726745605 C96.881713867,218.544555664 88.893493652,223.926330566 72.629699707,246.124938965 C66.309082031,254.751953125 56.108825684,257.017822266 56.015563965,249.815551758 C55.899841309,240.876403809 46.708557129,241.210571289 42.914123535,250.291809082 C39.734619141,257.901367188 40.134338379,260.655273438 43.78326416,256.281188965 C45.4609375,254.270263672 47.332214355,252.624938965 47.941650391,252.624938965 ZM-120.786499023,251.338134766 C-105.040283203,242.853149414 -102.965270996,223.874816895 -116.419799805,211.399047852 C-124.898498535,203.537231445 -139.75,205.49798584 -139.75,214.479125977 C-139.75,219.124938965 -138.849731445,219.456787109 -135.455383301,216.062438965 C-131.115905762,211.722961426 -123.726928711,213.073059082 -117.44708252,219.352844238 L-111.719238281,225.080688477 L-112.501159668,233.218322754 C-114.245361328,251.370178223 -135.577209473,256.879760742 -145.038574219,241.622070313 C-146.987915039,238.478515625 -147.801086426,237.989013672 -147.831726074,239.940612793 C-147.901611328,244.389648438 -140.962524414,251.148620605 -134.849304199,252.585998535 C-126.872314453,254.461669922 -126.526123047,254.430908203 -120.786499023,251.338134766 ZM-101.45513916,250.91583252 C-99.608581543,250.237609863 -95.301818848,247.78527832 -91.88458252,245.466308594 C-87.119445801,242.232543945 -83.653320313,241.249938965 -77.01171875,241.249938965 C-69.981811523,241.249938965 -68.528076172,240.79119873 -69.287353516,238.812438965 C-70.01739502,236.910095215 -68.846679688,236.363586426 -63.95513916,236.323303223 L-57.6875,236.271606445 L-60.84185791,233.885803223 C-67.661865234,228.727355957 -80.439453125,231.284057617 -90.061523438,239.73236084 C-95.89465332,244.853942871 -99.948425293,245.345581055 -95.875,240.437438965 C-90.970581055,234.527954102 -95.783691406,237.353942871 -104.555480957,245.534118652 C-114.29498291,254.616638184 -113.812133789,255.454772949 -101.45513916,250.91583252 ZM145.642700195,248.968688965 C143.421508789,246.957763672 139.711303711,243.118713379 137.397888184,240.437438965 L133.191650391,235.562438965 L134.278991699,240.437438965 L135.366333008,245.312438965 L130.68572998,240.692810059 C121.777709961,231.901000977 104.003479004,227.596435547 98.662536621,232.937438965 C97.329223633,234.270812988 98.038879395,234.749938965 101.346984863,234.749938965 C104.987548828,234.749938965 105.661804199,235.32409668 104.887145996,237.764709473 L103.930297852,240.779602051 L111.683898926,240.105712891 C118.267456055,239.533569336 121.399230957,240.421081543 132.4375,245.987304688 C147.051269531,253.356445313 151.631408691,254.390563965 145.642700195,248.968688965 ZM173.875,250.05645752 L179.5625,247.735290527 L173.367553711,248.647766113 C155.342102051,251.30267334 143.340393066,235.116333008 152.206054688,220.107910156 C159.140197754,208.369262695 176.413635254,209.517089844 175.221679688,221.637268066 C174.507446289,228.898803711 168.979736328,232.872558594 165.053833008,228.946655273 C161.614074707,225.506896973 162.488464355,222.903503418 167.479125977,221.725341797 C170.164978027,221.091308594 170.76385498,220.402587891 169.375305176,219.544433594 C166.446350098,217.734191895 161.151428223,219.822021484 159.140075684,223.580322266 C156.28326416,228.918334961 158.793029785,235.791381836 164.455749512,238.136962891 L169.472717285,240.215026855 L173.243225098,235.831604004 C189.378662109,217.072937012 173.935974121,197.728515625 152.992858887,210.464782715 C130.316467285,224.255126953 149.230102539,260.114624023 173.875,250.05645752 ZM186.751403809,234.845581055 L186.627746582,230.687438965 L184.4375,236.374938965 C181.539306641,243.900756836 181.558410645,246.032958984 184.489135742,242.158081055 C185.801330566,240.423217773 186.819335938,237.132629395 186.751403809,234.845581055 ZM-122.779602051,236.013366699 C-119.374938965,231.152587891 -119.59576416,227.279174805 -123.5,223.374938965 C-126.785461426,220.089477539 -137.60534668,218.646850586 -135.6875,221.749938965 C-135.135131836,222.643676758 -133.307006836,223.374938965 -131.625,223.374938965 C-127.741027832,223.374938965 -126.256103516,225.758850098 -127.567077637,229.889465332 C-128.866088867,233.98223877 -130.77154541,233.978393555 -134.875,229.874938965 C-139.094604492,225.655334473 -141.375,225.752990723 -141.375,230.153259277 C-141.375,239.086608887 -127.905334473,243.331359863 -122.779602051,236.013366699 ZM-96.645263672,228.116882324 C-96.107116699,226.421325684 -96.810546875,223.401184082 -98.208374023,221.405456543 C-99.606262207,219.409667969 -100.75,215.380126953 -100.75,212.450866699 C-100.75,206.684387207 -101.85559082,206.011108398 -106.15826416,209.157348633 L-108.937744141,211.189758301 L-105.656311035,217.625915527 C-103.851623535,221.165893555 -102.375,226.078308105 -102.375,228.542541504 C-102.375,233.676513672 -98.314086914,233.374816895 -96.645263672,228.116882324 ZM142.754211426,213.108642578 C144.303344727,211.242004395 143.889831543,210.267028809 140.648071289,208.142944336 C135.022399902,204.456848145 134.395141602,204.766479492 135.305114746,210.781188965 C135.744506836,213.685913086 135.101745605,218.026611328 133.876647949,220.427185059 C131.927185059,224.246948242 131.987670898,225.130493164 134.360900879,227.503723145 L137.072692871,230.215515137 L138.949584961,222.823425293 C139.981872559,218.757751465 141.693969727,214.386108398 142.754211426,213.108642578 ZM-165.75,220.043762207 L-160.0625,216.848876953 L-166.145568848,217.853210449 C-178.927124023,219.963623047 -186.875,212.720825195 -186.875,198.96282959 C-186.875,190.137207031 -177.003051758,179.499938965 -168.812438965,179.499938965 C-164.99810791,179.499938965 -164.008972168,178.858276367 -164.428710938,176.656188965 C-165.730102539,169.827880859 -180.04473877,174.606262207 -186.135620117,183.902160645 C-191.59197998,192.229553223 -192.042297363,200.053283691 -187.682861328,210.781188965 C-185.975097656,214.983703613 -189.654846191,214.287109375 -191.974975586,209.968688965 C-193.055358887,207.957763672 -194.46875,204.118713379 -195.115844727,201.437438965 L-196.292358398,196.562438965 L-196.458679199,203.41217041 C-196.670776367,212.146911621 -189.459716797,221.21282959 -181.510314941,222.205627441 C-172.18951416,223.369750977 -171.503173828,223.275634766 -165.75,220.043762207 ZM230.343688965,215.974121094 L235.624938965,210.422668457 L235.403747559,201.055053711 C235.282043457,195.902893066 234.875549316,193.515563965 234.500671387,195.749938965 C232.72833252,206.310424805 222.624938965,222.98236084 222.624938965,215.346313477 C222.624938965,213.755859375 221.698303223,213.858337402 218.778259277,215.771606445 C216.662780762,217.157836914 211.726745605,218.539428711 207.809509277,218.84185791 L200.687438965,219.391723633 L206.374938965,221.272460938 C215.525085449,224.298156738 224.262145996,222.366760254 230.343688965,215.974121094 ZM192.201843262,216.650390625 C195.30255127,214.627319336 191.758911133,211.880859375 188.38067627,213.688781738 C185.687072754,215.130371094 185.497924805,215.926940918 187.126586914,218.970092773 C188.61315918,221.747741699 189.220825195,222.006530762 189.828430176,220.120605469 C190.25958252,218.782348633 191.327575684,217.22076416 192.201843262,216.650390625 ZM228.370056152,205.237792969 C232.426330566,186.769470215 212.851135254,163.718200684 203.094543457,175.474121094 C201.965148926,176.834899902 199.804626465,177.555847168 198.293273926,177.076171875 C188.588256836,173.995910645 185.676757813,196.018066406 194.72064209,204.098754883 C204.832946777,213.134094238 218.561096191,207.302429199 215.537658691,195.25579834 C213.609191895,187.57244873 200.687438965,187.449523926 200.687438965,195.114562988 C200.687438965,197.598510742 201.723327637,198.105163574 206.092346191,197.758239746 C210.49822998,197.40838623 211.396789551,197.858886719 210.954040527,200.195739746 C210.171936035,204.323120117 199.91973877,205.106994629 197.102966309,201.254760742 C186.348510742,186.547302246 207.26776123,171.942687988 220.349914551,185.024963379 L225.874938965,190.549926758 L225.874938965,199.554016113 C225.874938965,204.506286621 225.143737793,209.010131836 224.249938965,209.562438965 C223.356262207,210.114807129 222.624938965,211.344421387 222.624938965,212.294799805 C222.624938965,215.829101563 227.306945801,210.077941895 228.370056152,205.237792969 ZM-159.217468262,206.295654297 C-153.326171875,203.249145508 -151.125,199.286804199 -151.125,191.72845459 C-151.125,184.253295898 -157.130187988,175.441345215 -160.384033203,178.141784668 C-162.22454834,179.669311523 -162.19732666,180.390991211 -160.216552734,182.579650879 C-150.959960938,192.808105469 -158.114013672,209.70098877 -169.191589355,203.772399902 C-173.63092041,201.39654541 -172.08001709,198.080444336 -166.798278809,198.655212402 C-163.207824707,199.045898438 -162.5,198.476623535 -162.5,195.197937012 C-162.5,186.780883789 -172.538452148,185.523010254 -175.593078613,193.557312012 C-179.994873047,205.134887695 -170.801757813,212.286071777 -159.217468262,206.295654297 ZM184.085205078,194.427612305 C183.071166992,183.244995117 186.132324219,175.819641113 193.479675293,171.639648438 C196.09197998,170.153442383 198.234069824,168.389038086 198.239685059,167.718688965 C198.245300293,167.048400879 199.024353027,166.499938965 199.97088623,166.499938965 C200.917419434,166.499938965 201.239807129,167.231201172 200.687438965,168.124938965 C200.135192871,169.018676758 200.457580566,169.749938965 201.40411377,169.749938965 C202.350524902,169.749938965 203.124938965,168.287475586 203.124938965,166.499938965 C203.124938965,164.712463379 202.576477051,163.25402832 201.906188965,163.259033203 C198.24041748,163.286254883 188.5,166.877197266 188.5,168.201293945 C188.5,169.053100586 187.403137207,169.749938965 186.0625,169.749938965 C184.721862793,169.749938965 183.625,168.592163086 183.625,167.177001953 C183.625,165.761962891 182.739868164,164.899169922 181.658081055,165.25970459 C178.778442383,166.219665527 178.470214844,191.90447998 181.258117676,198.593688965 C184.404785156,206.143798828 185.059936523,205.178283691 184.085205078,194.427612305 ZM-116.773742676,199.054016113 L-112.9375,195.858032227 L-118.50201416,195.804016113 L-124.06652832,195.749938965 L-120.484313965,191.936889648 C-117.069763184,188.302246094 -109.875976563,171.457336426 -111.181030273,170.15222168 C-112.459716797,168.873535156 -128.011047363,177.832702637 -129.003967285,180.420043945 C-129.867004395,182.669128418 -130.459777832,182.766296387 -132.580566406,181.006225586 C-136.018310547,178.153137207 -138.066833496,181.437316895 -138.100097656,189.855163574 L-138.125,196.147949219 L-135.28125,193.917663574 C-133.717163086,192.691101074 -129.725280762,188.762451172 -126.410400391,185.187438965 C-122.298828125,180.753295898 -120.362121582,179.535400391 -120.316650391,181.35546875 C-120.279968262,182.822875977 -123.565124512,187.710632324 -127.616821289,192.217163086 L-134.983764648,200.410888672 L-129.648071289,201.070373535 C-126.713562012,201.433105469 -123.479431152,201.846862793 -122.461242676,201.989868164 C-121.443115234,202.13293457 -118.883728027,200.811767578 -116.773742676,199.054016113 ZM168.1875,200.579467773 L173.0625,200.489685059 L167.289978027,195.276062012 C160.964172363,189.562683105 153.400634766,179.499938965 155.431945801,179.499938965 C156.135070801,179.499938965 160.610595703,183.338989258 165.377441406,188.031188965 L174.044677734,196.562438965 L173.553649902,187.752685547 C173.119506836,179.966491699 169,173.112976074 169,180.177001953 C169,183.428955078 165.952514648,183.543518066 164.722351074,180.337768555 C163.886535645,178.159729004 148.177978516,168.124938965 145.604187012,168.124938965 C145.019714355,168.124938965 145.657165527,170.282409668 147.020751953,172.919250488 C148.384277344,175.556152344 149.5,178.744689941 149.5,180.005004883 C149.5,181.265319824 151.328125,184.990356445 153.5625,188.282897949 C155.796875,191.575378418 157.625,194.602416992 157.625,195.00958252 C157.625,195.416809082 155.796875,195.749938965 153.5625,195.749938965 C151.328125,195.749938965 149.5,196.369445801 149.5,197.126647949 C149.5,199.340026855 156.522705078,202.174377441 160.0625,201.389770508 C161.849975586,200.993530273 165.506225586,200.62890625 168.1875,200.579467773 ZM-143.433532715,185.899780273 C-144.077087402,176.509338379 -143.710510254,172.417480469 -142.007507324,169.98614502 C-140.673400879,168.081420898 -140.355224609,166.317687988 -141.246398926,165.766967773 C-142.088562012,165.246459961 -143.916320801,166.446289063 -145.308044434,168.433288574 L-147.838500977,172.046020508 L-149.931518555,169.183654785 C-152.367370605,165.852416992 -163.666809082,162.818969727 -165.08605957,165.11529541 C-166.519775391,167.435119629 -162.58795166,171.30670166 -159.861022949,170.260314941 C-153.468505859,167.807250977 -143.808776855,183.26776123 -145.234558105,193.67010498 C-145.926940918,198.721618652 -145.681091309,200.465148926 -144.388916016,199.666564941 C-143.170227051,198.913391113 -142.853881836,194.355651855 -143.433532715,185.899780273 ZM-174.482910156,167.096801758 C-172.807922363,166.084411621 -171.968261719,164.700561523 -172.616943359,164.021484375 C-173.265686035,163.342468262 -174.911010742,163.711791992 -176.273193359,164.842346191 C-180.123718262,168.037963867 -179.212524414,165.485290527 -173.870178223,158.110412598 C-167.399658203,149.178100586 -165.217407227,140.887817383 -167.56439209,134.155151367 C-169.936157227,127.351501465 -171.340087891,129.060791016 -171.706481934,139.198120117 C-172.096435547,149.988342285 -174.753479004,152.625244141 -175.984863281,143.444152832 C-177.60168457,131.39050293 -188.04119873,125.41619873 -195.11907959,132.49407959 L-198.488220215,135.863220215 L-196.198791504,139.311279297 C-192.958374023,144.191589355 -189.173950195,145.313293457 -191.667297363,140.65435791 C-192.689208984,138.745056152 -193.082702637,136.466674805 -192.541687012,135.591369629 C-191.336730957,133.641662598 -186.875,133.472351074 -186.875,135.376281738 C-186.875,136.133300781 -185.427978516,138.421081543 -183.659423828,140.460205078 C-177.879577637,147.124450684 -177.666442871,154.666748047 -182.975402832,164.665405273 C-189.481811523,176.919250488 -189.479003906,176.80267334 -183.16809082,172.649169922 C-180.066223145,170.607727051 -176.157897949,168.109130859 -174.482910156,167.096801758 ZM223.65814209,168.680297852 C216.910461426,158.36895752 216.740783691,140.499938965 223.390563965,140.499938965 C224.636535645,140.499938965 226.120178223,139.037475586 226.687438965,137.249938965 C228.452819824,131.687927246 232.950622559,133.152954102 231.798278809,138.914611816 L230.815368652,143.829284668 L234.032653809,142.107421875 C240.066589355,138.878234863 236.708679199,129.124938965 229.562927246,129.124938965 C222.309509277,129.124938965 216.134338379,136.516967773 216.073303223,145.272766113 L216.02166748,152.687438965 L213.635803223,149.53314209 C212.226135254,147.669311523 211.249938965,142.809936523 211.249938965,137.655944824 C211.249938965,128.044555664 208.988220215,127.41003418 207.27520752,136.54083252 C206.413513184,141.13482666 207.216003418,144.576660156 211.06817627,152.808776855 C216.36907959,164.136413574 215.592956543,166.13671875 208.956848145,158.250305176 C206.643127441,155.500488281 204.749938965,154.266784668 204.749938965,155.508728027 C204.749938965,158.095275879 210.761535645,164.148193359 220.187438965,171.05267334 C228.258117676,176.964355469 228.825500488,176.576599121 223.65814209,168.680297852 ZM233.484069824,165.391174316 C232.170349121,162.818664551 231.495910645,158.498413086 231.944885254,155.531188965 C232.872619629,149.3984375 228.491882324,147.814758301 226.65032959,153.617248535 C225.354309082,157.700622559 226.95111084,164.874938965 229.155944824,164.874938965 C230.032653809,164.874938965 230.749938965,165.55859375 230.749938965,166.394165039 C230.749938965,167.229736328 231.611755371,169.971923828 232.665100098,172.487915039 L234.58013916,177.062438965 L235.20123291,173.516174316 C235.542785645,171.565734863 234.770080566,167.909484863 233.484069824,165.391174316 ZM-186.925720215,158.33026123 C-186.850769043,154.664672852 -191.551025391,148.624938965 -194.47857666,148.624938965 C-196.283996582,148.624938965 -196.558288574,149.21484375 -195.423034668,150.656188965 C-192.459960938,154.418212891 -191.673828125,161.163818359 -193.975891113,163.07434082 C-195.240234375,164.123657227 -195.834350586,166.653381348 -195.377563477,169.042663574 L-194.584838867,173.189758301 L-190.780639648,167.001098633 C-188.688354492,163.597351074 -186.953613281,159.695495605 -186.925720215,158.33026123 ZM38.513122559,163.26953125 C202.089904785,130.477416992 250.189025879,-80.692169189 115.894592285,-176.458496094 C-2.014831543,-260.540557861 -165.609375,-187.155975342 -181.85748291,-42.893981934 C-195.865478516,81.478637695 -82.50579834,187.530090332 38.513122559,163.26953125 ZM-28.4375,150.423095703 C-122.463867188,129.964416504 -182.855163574,44.118682861 -168.300354004,-48.390808105 C-145.773681641,-191.568695068 23.765136719,-249.073760986 128.622436523,-149.10269165 C150.775695801,-127.981842041 164.047546387,-105.034820557 174.242858887,-70.225097656 L179.5625,-52.062530518 L179.513183594,-22.812530518 L179.463989258,6.437469482 L175.153930664,22.014862061 C150.171142578,112.307739258 59.42755127,169.541137695 -28.4375,150.423095703 ZM-9.766540527,1.968719482 C-33.465759277,-14.160888672 -23.531677246,-49.492919922 4.732299805,-49.598297119 C31.709533691,-49.698883057 42.312805176,-13.094421387 19.66595459,1.955627441 C11.964538574,7.073577881 -2.256591797,7.079925537 -9.766540527,1.968719482 ZM-29.513183594,21.941009521 L-29.513183594,21.941009521M-156.743041992,139.79083252 C-155.293334961,130.12310791 -159.099914551,122.684326172 -170.362854004,113.175354004 C-175.32220459,108.98828125 -182.163146973,102.698547363 -185.564941406,99.198364258 C-192.514160156,92.047912598 -194.839050293,95.50958252 -188.5,103.568359375 C-186.712463379,105.840820313 -185.25,108.047912598 -185.25,108.473022461 C-185.25,108.898071289 -186.712463379,109.628356934 -188.5,110.09576416 C-192.442932129,111.12689209 -192.928771973,117.998718262 -189.273193359,121.032531738 C-186.482971191,123.348266602 -184.489135742,122.109680176 -184.458190918,118.041503906 C-184.427246094,113.964050293 -176.895935059,113.746643066 -171.896789551,117.679016113 C-162.515930176,125.057983398 -159.23449707,138.121582031 -163.445007324,151.326599121 C-164.208984375,153.722717285 -163.745788574,153.576477051 -161.100097656,150.586181641 C-159.286743164,148.536743164 -157.32611084,143.678771973 -156.743041992,139.79083252 ZM202.963317871,146.353027344 C199.871276855,135.154724121 204.655212402,121.081237793 213.530334473,115.265991211 C218.910827637,111.740539551 224.249938965,113.436950684 224.249938965,118.671936035 C224.249938965,123.121704102 227.64654541,123.926879883 230.73248291,120.208557129 C233.473083496,116.90637207 231.386535645,109.487121582 227.425964355,108.451416016 C223.419372559,107.403747559 223.428161621,107.344543457 228.312438965,102.460205078 C230.546813965,100.225830078 232.374938965,97.206115723 232.374938965,95.749755859 C232.374938965,92.998596191 228.47052002,95.621643066 210.956359863,110.139038086 C199.069274902,119.9921875 194.632873535,136.916687012 200.807312012,148.856628418 C204.124816895,155.272155762 205.110168457,154.128051758 202.963317871,146.353027344 ZM-185.13659668,87.097167969 C-190.098083496,77.371948242 -188.655517578,70.650695801 -182.672424316,75.616210938 C-179.162719727,78.528991699 -175.657348633,74.941833496 -178.148193359,70.986450195 C-184.008544922,61.680480957 -196.543579102,74.391479492 -191.395935059,84.420166016 C-189.264038086,88.573608398 -183.27557373,95.192199707 -182.421936035,94.338500977 C-182.065124512,93.981811523 -183.286804199,90.723205566 -185.13659668,87.097167969 ZM228.168029785,88.375305176 C232.938781738,82.705566406 233.557922363,76.28704834 229.845397949,70.98651123 C225.491149902,64.770019531 214.128112793,67.952453613 216.704650879,74.666809082 C217.748718262,77.387329102 222.624938965,78.073608398 222.624938965,75.499938965 C222.624938965,74.606201172 223.721862793,73.874938965 225.062438965,73.874938965 C228.444152832,73.874938965 228.152770996,80.032348633 224.425109863,87.34387207 C220.688537598,94.672973633 222.458435059,95.160705566 228.168029785,88.375305176 ZM228.386413574,-155.988647461 C233.52532959,-161.127593994 233.450134277,-166.903167725 228.169616699,-172.628143311 C224.865905762,-176.210021973 224.19354248,-176.490753174 225.033508301,-173.937530518 C228.558776855,-163.220977783 226.650085449,-154.596557617 222.12310791,-160.787445068 C219.534606934,-164.327606201 216.124938965,-163.018737793 216.124938965,-158.484863281 C216.124938965,-155.679443359 219.930603027,-152.170776367 223.105163574,-152.049438477 C223.816101074,-152.022277832 226.192565918,-153.794891357 228.386413574,-155.988647461 ZM-177.392150879,-157.453887939 C-176.501708984,-162.149688721 -179.927307129,-164.608398438 -182.485656738,-161.109710693 L-184.608459473,-158.206542969 L-186.735656738,-160.769683838 C-188.710327148,-163.148925781 -188.538146973,-166.028503418 -185.933410645,-174.192810059 C-185.182556152,-176.546203613 -185.703063965,-176.365997314 -188.363952637,-173.351257324 C-192.03918457,-169.187286377 -192.769714355,-161.816802979 -190.017028809,-156.673278809 C-187.72076416,-152.38269043 -178.242614746,-152.968719482 -177.392150879,-157.453887939 ZM-165.452209473,-198.731750488 C-154.581176758,-210.369644165 -153.524230957,-218.554153442 -161.245605469,-231.304229736 C-165.535217285,-238.387420654 -166.387329102,-237.090026855 -163.262573242,-228.233428955 C-159.702331543,-218.142745972 -162.350402832,-207.519805908 -170.128356934,-200.690673828 C-177.164489746,-194.512878418 -184.686035156,-194.386383057 -184.030334473,-200.45690918 C-183.698730469,-203.527282715 -184.301391602,-204.129974365 -187.280334473,-203.70690918 C-192.41809082,-202.977264404 -193.503295898,-194.40423584 -188.619628906,-193.12713623 C-184.466796875,-192.041168213 -184.460632324,-191.703643799 -188.5,-186.568450928 C-199.093017578,-173.101531982 -179.96295166,-183.19732666 -165.452209473,-198.731750488 ZM229.252502441,-185.945922852 C225.275939941,-191.530517578 225.093444824,-192.625030518 228.13861084,-192.625030518 C231.29864502,-192.625030518 232.689880371,-197.125213623 230.686950684,-200.867736816 C228.298522949,-205.330596924 223.145446777,-204.964660645 223.308410645,-200.343780518 C223.522155762,-194.286590576 216.991638184,-194.683410645 210.55645752,-201.118621826 C199.300231934,-212.374786377 199.245300293,-227.29107666 210.415100098,-239.479476929 C217.508972168,-247.220214844 218.846618652,-245.661178589 212.815734863,-236.681442261 C206.69354248,-227.565719604 205.335021973,-220.364746094 208.600524902,-214.337493896 L211.119812012,-209.687515259 L211.184875488,-216.460861206 C211.261291504,-224.406921387 212.628112793,-228.719406128 214.670227051,-227.457290649 C215.470397949,-226.962783813 216.124938965,-224.838256836 216.124938965,-222.736068726 C216.124938965,-218.429458618 224.467102051,-210.500015259 228.99786377,-210.500015259 C232.809997559,-210.500015259 237.675109863,-216.034881592 236.98614502,-219.588195801 C236.341003418,-222.91607666 232.011047363,-224.878570557 232.456726074,-221.64112854 C233.382141113,-214.91809082 227.987609863,-212.34677124 226.321838379,-218.716934204 C225.792175293,-220.742385864 224.551330566,-221.714782715 223.171813965,-221.185455322 C216.021179199,-218.441482544 216.659118652,-237.654724121 224.076843262,-248.435821533 C230.343811035,-257.544555664 230.633239746,-261.225830078 224.656188965,-255.805541992 C222.198425293,-253.576675415 217.534729004,-249.814620972 214.292541504,-247.445465088 C195.722595215,-233.875961304 192.052185059,-212.553466797 205.842224121,-198.354400635 C220.850158691,-182.901092529 237.828674316,-173.901794434 229.252502441,-185.945922852 ZM-179.706970215,-215.499694824 C-177.239074707,-218.432601929 -175.5,-222.502716064 -175.5,-225.345596313 C-175.5,-228.162612915 -174.819519043,-229.77130127 -173.875,-229.187515259 C-172.981262207,-228.635147095 -172.238769531,-225.118545532 -172.225097656,-221.37286377 C-172.211425781,-217.627166748 -171.51953125,-213.48614502 -170.6875,-212.170562744 C-169.086181641,-209.638397217 -169.302368164,-209.332885742 -166.518310547,-218.060516357 C-165.140136719,-222.38092041 -168.9296875,-231.499816895 -176.501403809,-242.083297729 C-180.378967285,-247.503112793 -184.736755371,-253.632843018 -186.185424805,-255.70489502 C-191.255249023,-262.956390381 -190.225524902,-257.91973877 -184.51373291,-247.528427124 C-180.646362305,-240.492660522 -178.758178711,-234.948379517 -178.774902344,-230.677581787 C-178.804260254,-223.163223267 -181.244445801,-218.268936157 -183.343139648,-221.514892578 C-184.322509766,-223.02961731 -185.19329834,-222.479476929 -186.558288574,-219.483642578 C-189.300170898,-213.465805054 -193.363098145,-214.159469604 -193.426635742,-220.656265259 L-193.47833252,-225.937515259 L-195.864135742,-222.783172607 C-203.231445313,-213.042755127 -187.675109863,-206.03012085 -179.706970215,-215.499694824 ZM-186.875,-232.075942993 C-186.875,-234.111465454 -187.946044922,-237.306015015 -189.255126953,-239.174987793 C-190.564147949,-241.043945313 -191.238220215,-242.97013855 -190.752929688,-243.455383301 C-190.26763916,-243.940658569 -190.929443359,-246.358474731 -192.223510742,-248.828308105 L-194.57635498,-253.31892395 L-194.727661133,-245.780487061 C-194.810974121,-241.634353638 -194.174987793,-237.806945801 -193.31451416,-237.275131226 C-192.454040527,-236.743331909 -191.75,-234.523239136 -191.75,-232.34161377 C-191.75,-229.899078369 -190.813476563,-228.375015259 -189.3125,-228.375015259 C-187.859313965,-228.375015259 -186.875,-229.869567871 -186.875,-232.075942993 ZM231.458435059,-234.04536438 C230.674987793,-238.221618652 231.012390137,-239.952713013 232.738952637,-240.615280151 C234.725891113,-241.377716064 236.465148926,-256 234.569030762,-256 C230.348815918,-256 224.48260498,-233.667327881 227.825012207,-230.325012207 C231.256408691,-226.893554688 232.551452637,-228.219497681 231.458435059,-234.04536438 ZM-165.75,-237.81652832 C-165.75,-239.80039978 -175.627380371,-249.500015259 -177.647583008,-249.500015259 C-178.616699219,-249.500015259 -176.553405762,-246.575012207 -173.0625,-243.000015259 C-166.370117188,-236.146408081 -165.75,-235.706832886 -165.75,-237.81652832 ZM-157.19934082,-245.177902222 C-153.837097168,-246.348831177 -150.021362305,-248.714370728 -148.719787598,-250.434677124 C-146.318847656,-253.608184814 -145.386291504,-252.164321899 -146.168273926,-246.483917236 C-146.335083008,-245.27192688 -145.50769043,-244.612075806 -144.329589844,-245.017532349 C-143.073974609,-245.449661255 -142.359741211,-247.706604004 -142.603637695,-250.471130371 C-142.832580566,-253.065139771 -143.051330566,-258.000854492 -143.08972168,-261.43939209 L-143.159545898,-267.69128418 L-148.204101563,-260.075500488 C-150.97857666,-255.886795044 -155.695739746,-251.292678833 -158.686767578,-249.866363525 C-161.67779541,-248.440063477 -164.125,-246.311630249 -164.125,-245.136550903 C-164.125,-242.572906494 -164.689025879,-242.569534302 -157.19934082,-245.177902222 ZM202.734191895,-246.656265259 C202.370178223,-247.773452759 199.932678223,-249.69619751 197.317443848,-250.92906189 C185.435058594,-256.530456543 180.893188477,-265.747772217 183.744995117,-278.473022461 C185.399780273,-285.856842041 183.722290039,-290.97644043 181.059814453,-286.668395996 C178.928588867,-283.220031738 178.543762207,-248.194259644 180.623046875,-246.909225464 C181.615783691,-246.295684814 183.129089355,-247.046676636 183.986083984,-248.578048706 C185.369506836,-251.049942017 185.846862793,-251.092163086 188.240905762,-248.954345703 C190.650085449,-246.802978516 194.741271973,-245.508956909 201.229064941,-244.846313477 C202.420837402,-244.724594116 203.098083496,-245.539077759 202.734191895,-246.656265259 ZM-109.68548584,-250.718765259 C-110.322570801,-252.282821655 -111.962036133,-256.853149414 -113.328796387,-260.875 C-114.695617676,-264.896881104 -117.184265137,-269.704284668 -118.85925293,-271.558074951 C-122.389648438,-275.465332031 -121.412902832,-277.104003906 -115.510437012,-277.176696777 L-111.3125,-277.228393555 L-114.188842773,-279.410919189 C-116.746887207,-281.351959229 -130.911499023,-281.29095459 -133.131530762,-279.329345703 C-133.513244629,-278.99206543 -131.962585449,-276.712799072 -129.68560791,-274.264312744 C-124.301208496,-268.474243164 -119.584594727,-260.998779297 -120.645996094,-259.937316895 C-121.105957031,-259.477355957 -125.226928711,-263.302429199 -129.803588867,-268.437438965 L-138.125,-277.773742676 L-138.125,-269.523376465 C-138.125,-260.875854492 -134.409729004,-254.744216919 -131.763916016,-259.025146484 C-130.824707031,-260.544921875 -129.997314453,-260.392333984 -128.338378906,-258.393432617 C-123.402160645,-252.445632935 -107.769042969,-246.013473511 -109.68548584,-250.718765259 ZM154.735839844,-252.290756226 C159.198120117,-254.719421387 163.500366211,-258.419677734 164.296447754,-260.513549805 C165.795288086,-264.455718994 169,-264.083068848 169,-259.96661377 C169,-256.825561523 171.655517578,-256.981811523 172.88861084,-260.19543457 C173.431152344,-261.609130859 173.871337891,-266.179443359 173.866943359,-270.35168457 L173.858825684,-277.9375 L170.210693359,-273.613952637 C164.589660645,-266.952392578 154.375,-258.68939209 154.375,-260.803955078 C154.375,-261.843811035 158.137268066,-266.672668457 162.735717773,-271.534790039 L171.096374512,-280.375 L162.233764648,-280.375 C156.95690918,-280.375 152.094970703,-279.409729004 150.216796875,-277.989196777 L147.0625,-275.603393555 L152.34375,-275.551696777 C158.410339355,-275.49230957 158.818664551,-274.652160645 154.611450195,-270.885498047 C152.246948242,-268.768554688 144.625,-251.716171265 144.625,-248.542907715 C144.625,-247.171768188 146.837219238,-247.99180603 154.735839844,-252.290756226 ZM-163.759521484,-255.7162323 C-164.062133789,-257.174072266 -163.178710938,-257.543701172 -161.02520752,-256.860198975 C-157.005065918,-255.584243774 -149.5,-265.90411377 -149.5,-272.707946777 C-149.5,-290.533935547 -175.340759277,-298.496154785 -175.843139648,-280.824981689 C-176.14855957,-270.085571289 -167.210205078,-264.858337402 -161.78515625,-272.603729248 C-158.481384277,-277.320495605 -162.202758789,-282.368286133 -166.409729004,-278.87677002 C-169.213256836,-276.550109863 -172.25,-277.819610596 -172.25,-281.318267822 C-172.25,-288.963653564 -156.9453125,-287.144897461 -154.967468262,-279.264465332 C-151.215759277,-264.316436768 -168.644775391,-254.795150757 -180.449645996,-265.34375 C-192.847167969,-276.421813965 -186.333190918,-299.79006958 -170.809692383,-299.926696777 L-164.9375,-299.978393555 L-168.1875,-302.436645508 C-170.316040039,-304.046691895 -172.839355469,-304.495117188 -175.5,-303.736206055 C-177.734375,-303.098907471 -181.74621582,-302.517883301 -184.415222168,-302.445007324 C-187.926940918,-302.349121094 -189.432739258,-301.414367676 -189.864257813,-299.0625 C-190.192199707,-297.275024414 -191.588500977,-294.540222168 -192.967224121,-292.985229492 C-194.34588623,-291.430206299 -195.758789063,-286.311462402 -196.106933594,-281.610229492 L-196.74005127,-273.0625 L-194.366577148,-279.359741211 C-190.564575195,-289.447021484 -189.047668457,-289.388702393 -189.702941895,-279.180450439 C-190.404296875,-268.253234863 -187.003173828,-261.288391113 -178.358642578,-255.949356079 C-172.504760742,-252.333969116 -163.026062012,-252.182601929 -163.759521484,-255.7162323 ZM218.692565918,-257.439239502 C224.887878418,-261.217102051 229.124938965,-269.807312012 229.124938965,-278.589355469 C229.124938965,-286.91619873 231.529968262,-287.216125488 233.670593262,-279.15625 L235.289001465,-273.0625 L235.457092285,-280.470672607 C235.553283691,-284.713928223 234.605651855,-289.22644043 233.239196777,-291.033172607 C231.926940918,-292.768066406 230.83013916,-296.155303955 230.801696777,-298.56036377 C230.749328613,-302.980926514 227.364074707,-306.779998779 226.305969238,-303.605529785 C225.950134277,-302.538146973 221.598449707,-302.122680664 214.835144043,-302.510467529 C208.841491699,-302.854125977 205.034362793,-302.717712402 206.374938965,-302.207336426 C222.088806152,-296.225402832 225.874938965,-292.144165039 225.874938965,-281.1875 C225.874938965,-264.056274414 206.379211426,-254.531158447 196.644836426,-266.906433105 C188.022644043,-277.867736816 200.670349121,-293.97253418 210.321472168,-284.32144165 C215.277648926,-279.365234375 211.48638916,-274.936706543 206.303039551,-279.627624512 C203.755432129,-281.933105469 202.735046387,-282.074279785 200.717956543,-280.400299072 C197.123718262,-277.417297363 197.68560791,-274.319732666 202.379089355,-271.244445801 C211.118225098,-265.518310547 219.843444824,-276.895477295 213.793640137,-286.128540039 C209.600280762,-292.52835083 199.375549316,-292.042480469 192.968688965,-285.138916016 C178.748718262,-269.81652832 200.52911377,-246.363189697 218.692565918,-257.439239502 ZM-140.175598145,-286.372039795 C-141.686462402,-287.882904053 -143.467285156,-288.574401855 -144.132995605,-287.908691406 C-144.798706055,-287.242980957 -144.267700195,-286.018005371 -142.952941895,-285.186523438 C-138.996765137,-282.684570313 -137.238586426,-283.435058594 -140.175598145,-286.372039795 ZM140.614440918,-293.317626953 C139.245239258,-294.830566406 138.073608398,-297.83895874 138.010742188,-300.002990723 C137.947937012,-302.16696167 137.373168945,-305.264892578 136.733581543,-306.887268066 L135.570556641,-309.837036133 L132.762512207,-306.734100342 L129.954345703,-303.631164551 L132.414672852,-297.742797852 C133.767822266,-294.504180908 134.875,-290.3515625 134.875,-288.51473999 L134.875,-285.175109863 L138.989440918,-287.87097168 L143.103820801,-290.566833496 L140.614440918,-293.317626953 ZM175.07635498,-290.466918945 C185.627380371,-300.316925049 173.19152832,-324.624694824 161.515319824,-316.974121094 C153.268310547,-311.570495605 159.845581055,-295.935455322 168.826538086,-299.594421387 C170.920776367,-300.447631836 170.737243652,-300.760803223 167.899291992,-301.176635742 C162.778564453,-301.927001953 159.556762695,-306.160003662 162.604553223,-308.133178711 C168.806884766,-312.148803711 178.449645996,-303.292236328 174.571350098,-297.141998291 C169.372009277,-288.896697998 154.441833496,-292.178833008 150.122436523,-302.516723633 C141.543212891,-323.0496521 172.186523438,-340.769958496 182.71697998,-321.36541748 C184.828186035,-317.474975586 185.127807617,-317.346923828 185.184936523,-320.31048584 C185.339172363,-328.307006836 174.292053223,-334 158.620788574,-334 C143.540405273,-334 139.492980957,-332.229858398 132.583679199,-322.612609863 C116.54296875,-300.285095215 86.705810547,-304.965637207 78.120483398,-331.15625 C76.272216797,-336.794464111 73.125,-339.535583496 73.125,-335.507080078 C73.125,-334.548461914 71.198303223,-335.279693604 68.843322754,-337.132080078 C63.453369141,-341.371856689 58.469360352,-341.409393311 53.18157959,-337.25 C48.348693848,-333.448455811 45.5,-333.082672119 45.5,-336.263671875 C45.5,-337.508666992 44.403137207,-338.94821167 43.0625,-339.462646484 C39.623840332,-340.782165527 39.815368652,-332.71307373 43.314331055,-328.846710205 C47.944519043,-323.730377197 55.25,-324.895324707 55.25,-330.75 L55.25,-335.625 L60.65423584,-335.625 C66.305053711,-335.625 70.586242676,-332.085998535 74.522583008,-324.160949707 C87.2734375,-298.489624023 110.262023926,-297.05871582 137.581970215,-320.235900879 C149.29296875,-330.171142578 153.133605957,-331.635131836 147.786499023,-324.125732422 C142.973022461,-317.365814209 141.386291504,-309.316925049 143.34552002,-301.598205566 C147.039306641,-287.045837402 164.754882813,-280.831176758 175.07635498,-290.466918945 ZM-114.584716797,-290.397857666 C-94.626220703,-306.097167969 -112.69720459,-341.273193359 -135.768676758,-331.633331299 C-139.126586914,-330.230285645 -141.458679199,-328.667053223 -140.951171875,-328.159515381 C-140.443603516,-327.651977539 -138.551269531,-328.027191162 -136.746032715,-328.993347168 C-120.948364258,-337.447967529 -104.364196777,-314.855102539 -114.741882324,-299.016845703 C-118.392028809,-293.445983887 -129.219055176,-290.272613525 -132.699768066,-293.753387451 C-135.868469238,-296.922058105 -134.335144043,-299.854522705 -130.090026855,-298.744415283 C-125.075622559,-297.433105469 -118.044799805,-305.422729492 -119.370788574,-310.925537109 C-122.200073242,-322.667327881 -141.375,-321.533996582 -141.375,-309.625 C-141.375,-305.527282715 -139.648376465,-305.521484375 -134.461242676,-309.60168457 C-130.936645508,-312.374145508 -130.086303711,-312.499511719 -128.420410156,-310.492248535 C-125.160217285,-306.563934326 -127.084106445,-302.331237793 -132.214050293,-302.14630127 C-139.966796875,-301.866760254 -142.040527344,-295.635559082 -136.19354248,-290.188293457 C-131.283935547,-285.61428833 -120.533508301,-285.718505859 -114.584716797,-290.397857666 ZM-98.336425781,-293.484130859 C-99.117370605,-297.039550781 -98.656738281,-299.324035645 -96.729614258,-301.453491211 C-94.438537598,-303.985107422 -94.351196289,-304.956176758 -96.154907227,-307.844360352 C-98.918334961,-312.269348145 -100.731994629,-312.171936035 -100.821289063,-307.59375 C-100.860534668,-305.582824707 -101.925964355,-301.036224365 -103.188903809,-297.49017334 C-105.554870605,-290.846984863 -104.59942627,-288.584777832 -99.402099609,-288.524902344 C-97.834533691,-288.506835938 -97.542175293,-289.867553711 -98.336425781,-293.484130859 ZM-148.931640625,-295.762268066 C-148.42779541,-297.07522583 -149.076293945,-300.183044434 -150.372802734,-302.668518066 C-158.874511719,-318.967224121 -144.31262207,-338.634277344 -123.5,-338.962493896 C-111.570556641,-339.150634766 -117.473754883,-341.851531982 -130.162475586,-342.010803223 C-152.574707031,-342.29208374 -161.551330566,-324.306945801 -153.423217773,-295.40625 C-152.644836426,-292.638366699 -150.051513672,-292.84387207 -148.931640625,-295.762268066 ZM192.966369629,-310.544067383 C193.602600098,-334.970123291 182.940917969,-346.521728516 163.798095703,-342.146881104 L158.4375,-340.921783447 L164.9375,-339.741638184 C185.218566895,-336.059326172 195.863952637,-319.026916504 187.883178711,-303.028991699 C185.980163574,-299.214416504 185.735900879,-297.184997559 186.996887207,-295.665649414 C190.893249512,-290.970855713 192.565002441,-295.137634277 192.966369629,-310.544067383 ZM-51.23260498,-308.633544922 C-48.950073242,-310.129089355 -43.683898926,-316.46395874 -39.529846191,-322.711029053 C-32.122375488,-333.850860596 -28.15612793,-336.644073486 -21.659790039,-335.296081543 C-19.684143066,-334.886108398 -18.820556641,-333.457336426 -19.084289551,-331.03503418 C-19.538879395,-326.859527588 -16.342712402,-325.091552734 -10.837402344,-326.473297119 C-5.090698242,-327.915649414 -0.312194824,-340.5 -5.511352539,-340.5 C-6.755065918,-340.5 -8.231506348,-338.671875 -8.792297363,-336.4375 C-9.766723633,-332.555175781 -13,-330.650054932 -13,-333.958282471 C-13,-340.001037598 -30.57611084,-341.613647461 -34.209655762,-335.904266357 C-35.465148926,-333.93145752 -36.172363281,-333.743743896 -36.792236328,-335.21875 C-38.448852539,-339.160827637 -40.598754883,-337.17388916 -41.625671387,-330.751708984 C-44.060546875,-315.524993896 -64.701416016,-305.3828125 -80.132995605,-311.830566406 C-85.040893555,-313.881195068 -87.968444824,-316.529602051 -97.773254395,-327.788818359 C-100.437255859,-330.848022461 -103.733947754,-332.423614502 -108.875,-333.09475708 C-115.129638672,-333.911315918 -115.742492676,-333.751983643 -113.111572266,-331.993469238 C-111.41973877,-330.862670898 -105.204162598,-325.837493896 -99.299072266,-320.82635498 C-79.032775879,-303.628234863 -64.498535156,-299.941345215 -51.23260498,-308.633544922 ZM216.072814941,-309.625 C220.570251465,-309.625 224.249938965,-310.356262207 224.249938965,-311.25 C224.249938965,-313.52645874 231.317199707,-313.282745361 233.674987793,-310.925018311 C236.482849121,-308.11706543 236.076843262,-311.506744385 233.095397949,-315.763427734 C231.704040527,-317.749816895 229.510314941,-319.375 228.220397949,-319.375 C225.291442871,-319.375 225.296203613,-320.042297363 228.265930176,-325.78503418 C229.580993652,-328.32800293 231.34552002,-333.473754883 232.187316895,-337.220062256 L233.717834473,-344.031494141 L229.868103027,-343.0652771 C222.31817627,-341.170410156 217.749938965,-338.92779541 217.749938965,-337.116363525 C217.749938965,-336.104064941 216.590026855,-335.722412109 215.16973877,-336.267425537 C213.603210449,-336.868591309 211.327819824,-335.819763184 209.377868652,-333.59753418 C207.179504395,-331.092224121 205.902282715,-330.571472168 205.32989502,-331.947021484 C203.748474121,-335.747314453 199.056945801,-340.219207764 195.60345459,-341.218200684 L192.144592285,-342.218811035 L196.11114502,-334.453125 C200.101745605,-326.64050293 200.56036377,-317.773803711 197.458068848,-308.410461426 L196.24810791,-304.758361816 L202.071838379,-307.191711426 C205.274963379,-308.530029297 211.575256348,-309.625 216.072814941,-309.625 ZM202.469299316,-312.621276855 C201.238708496,-314.612304688 204.622619629,-325.875 206.45135498,-325.875 C207.303161621,-325.875 207.999938965,-324.322967529 207.999938965,-322.426025391 C207.999938965,-319.392303467 208.33001709,-319.245544434 210.741760254,-321.207275391 C213.14263916,-323.160308838 213.351013184,-323.08404541 212.417785645,-320.59375 C211.628356934,-318.487548828 212.18170166,-317.75 214.550964355,-317.75 C219.925231934,-317.75 218.114440918,-314.753997803 211.656188965,-312.960449219 C204.255310059,-310.905151367 203.546081543,-310.878967285 202.469299316,-312.621276855 ZM216.124938965,-327.248168945 C216.124938965,-329.08605957 222.43939209,-334.727294922 223.410095215,-333.756591797 C224.485656738,-332.680999756 219.518371582,-325.875 217.657897949,-325.875 C216.814758301,-325.875 216.124938965,-326.492919922 216.124938965,-327.248168945 ZM-183.857788086,-312.099304199 L-174.6875,-310.992492676 L-177.934936523,-313.42590332 C-182.064697266,-316.520446777 -180.178039551,-318.628601074 -175.513122559,-316.132019043 C-173.477050781,-315.042358398 -172.371398926,-313.277526855 -172.885437012,-311.937866211 C-173.373596191,-310.665802002 -172.881896973,-309.61505127 -171.792785645,-309.602813721 C-170.703613281,-309.590637207 -167.984375,-309.134399414 -165.75,-308.589050293 L-161.6875,-307.597412109 L-166.935119629,-312.267456055 C-174.012023926,-318.565429688 -182,-329.02041626 -182,-331.984924316 C-182,-335.440704346 -177.703918457,-331.666137695 -174.255859375,-325.180847168 C-172.186889648,-321.289611816 -171.466918945,-320.815155029 -170.993835449,-323.03125 C-170.194335938,-326.776031494 -167.375,-326.701477051 -167.375,-322.93560791 C-167.375,-321.318908691 -166.218444824,-318.576721191 -164.80480957,-316.84185791 L-162.234680176,-313.6875 L-163.195617676,-316.70526123 C-164.681518555,-321.371856689 -161.093139648,-332.30456543 -156.601074219,-336.796661377 C-154.374633789,-339.023071289 -152.959838867,-341.251556396 -153.45715332,-341.748840332 C-155.271972656,-343.563598633 -162.60723877,-338.804473877 -164.117370605,-334.832489014 C-166.075256348,-329.682861328 -165.858337402,-329.652862549 -175.721496582,-336.4375 C-180.268981934,-339.565643311 -184.944702148,-342.125 -186.111938477,-342.125 C-187.279174805,-342.125 -189.295532227,-342.532287598 -190.592712402,-343.030059814 C-193.584289551,-344.178039551 -190.650756836,-329.581848145 -187.012695313,-325.21673584 L-184.712890625,-322.457336426 L-190.668945313,-317.54788208 C-193.944763184,-314.84765625 -196.602783203,-311.411956787 -196.575622559,-309.912963867 C-196.532348633,-307.529785156 -196.306518555,-307.565429688 -194.777160645,-310.196838379 C-193.267822266,-312.79385376 -191.771728516,-313.054504395 -183.857788086,-312.099304199 ZM-142.974243164,-323.453430176 C-142.094665527,-323.997039795 -141.399353027,-325.312744141 -141.429016113,-326.37713623 C-141.45880127,-327.441589355 -142.921264648,-326.586181641 -144.679016113,-324.476226807 C-146.436828613,-322.366271973 -147.809020996,-318.710021973 -147.72845459,-316.351226807 L-147.581848145,-312.0625 L-146.077697754,-317.263763428 C-145.250366211,-320.124450684 -143.853820801,-322.909790039 -142.974243164,-323.453430176 ZM121.118896484,-317.345367432 C122.895385742,-318.296112061 125.803222656,-320.701416016 127.580627441,-322.690460205 L130.8125,-326.306945801 L127.5625,-325.375183105 C115.40435791,-321.889587402 109.909240723,-320.968505859 106.924255371,-321.915893555 C104.225708008,-322.772399902 103.719909668,-322.448791504 104.515625,-320.375061035 C105.287963867,-318.362487793 104.511169434,-317.75 101.186523438,-317.75 C98.521850586,-317.75 97.445129395,-317.176574707 98.393737793,-316.262634277 C101.864196777,-312.91885376 113.921264648,-313.49331665 121.118896484,-317.345367432 ZM-59.658691406,-317.566345215 C-58.330444336,-318.894592285 -59.284118652,-319.375 -63.248962402,-319.375 C-67.797180176,-319.375 -68.337768555,-319.748718262 -66.679626465,-321.746673584 C-65.00201416,-323.768066406 -65.752563477,-324.084106445 -71.761962891,-323.886474609 C-75.639709473,-323.758911133 -81.189025879,-324.245574951 -84.09375,-324.967895508 C-91.407653809,-326.786743164 -90.737976074,-324.24798584 -82.46875,-318.807128906 C-75.222290039,-314.03918457 -63.806762695,-313.418212891 -59.658691406,-317.566345215 ZM-45.5,-332.324035645 C-45.5,-340.105895996 -53.376342773,-344.32434082 -58.778320313,-339.435638428 C-63.24822998,-335.390380859 -62.386352539,-332.642272949 -56.46875,-332.071716309 C-52.261535645,-331.66607666 -51.072143555,-330.744628906 -50.620361328,-327.540893555 L-50.053222656,-323.519287109 L-47.776611328,-326.632751465 C-46.524475098,-328.345123291 -45.5,-330.906188965 -45.5,-332.324035645 ZM94.227905273,-333.192382813 C99.825195313,-331.962982178 100.995178223,-335.147644043 96.571472168,-339.57144165 C89.73236084,-346.410522461 80.114562988,-336.584411621 83.92590332,-326.652038574 C84.761535645,-324.47467041 85.423156738,-324.97454834 87.153808594,-329.090576172 L89.330749512,-334.267944336 L94.227905273,-333.192382813 ZM115.375,-327.551025391 C115.375,-328.472808838 114.278137207,-329.647918701 112.9375,-330.162353516 C109.862915039,-331.342163086 109.690979004,-338.875 112.738525391,-338.875 C113.969665527,-338.875 115.887390137,-337.778137207 117,-336.4375 C119.674560547,-333.214904785 128.092224121,-333.344726563 135.895263672,-336.728912354 L142.1875,-339.457824707 L135.6875,-340.711242676 C131.725158691,-341.475311279 127.817687988,-341.285186768 125.678894043,-340.224243164 C122.966308594,-338.878723145 121.317504883,-339.081237793 118.411071777,-341.116943359 C113.605407715,-344.483001709 112.806274414,-344.431304932 108.875,-340.5 C104.006225586,-335.631225586 107.258300781,-325.875 113.75,-325.875 C114.643737793,-325.875 115.375,-326.629211426 115.375,-327.551025391 ZM-73.018188477,-329.182189941 C-68.879577637,-331.397094727 -68.768737793,-339.793640137 -72.849243164,-341.977416992 C-74.951782227,-343.102661133 -77.202392578,-342.853790283 -80.528320313,-341.128295898 C-84.090332031,-339.280273438 -86.149475098,-339.104888916 -89.005554199,-340.406188965 C-93.353271484,-342.387145996 -104,-342.725952148 -104,-340.883361816 C-104,-336.183532715 -85.307495117,-332.630004883 -80.34185791,-336.38583374 C-78.606933594,-337.698028564 -76.2734375,-338.794921875 -75.15625,-338.82333374 C-71.771179199,-338.909454346 -72.881774902,-332.729614258 -76.736572266,-330.029663086 C-80.765991211,-327.207336426 -77.92010498,-326.558746338 -73.018188477,-329.182189941 ZM36.15625,0.499176025 C20.966796875,-16.206359863 54.38104248,-3.005462646 91.750976563,22.46282959 C125.510620117,45.47064209 139.793945313,53.683227539 141.434020996,51.02947998 C142.279052734,49.662231445 142.227172852,48.077148438 141.307373047,47.157287598 C136.940856934,42.790893555 140.704406738,32.743133545 147.607788086,30.336578369 C150.179870605,29.439971924 152.652893066,27.296844482 153.103393555,25.57409668 L153.922546387,22.441833496 L124.492492676,15.488769531 C84.842102051,6.121063232 59.903442383,-0.462097168 52.47277832,-3.522460938 C39.613220215,-8.818878174 35.75,-11.065612793 35.75,-13.247711182 C35.75,-18.70526123 62.518676758,-13.884216309 92.491882324,-3.0284729 C155.427185059,19.765563965 160.877990723,20.82144165 153.805908203,8.849365234 C149.98638916,2.383483887 150.468811035,-3.616516113 155.1875,-8.335266113 C164.038208008,-17.185974121 164.172485352,-17.163818359 104.40625,-16.71987915 C46.214477539,-16.287689209 37.375,-16.964569092 37.375,-21.852783203 C37.375,-26.905181885 72.574707031,-28.754669189 104,-25.353393555 C111.596862793,-24.531158447 127.578063965,-23.35446167 139.51373291,-22.738494873 L161.215087891,-21.618621826 L160.013183594,-25.465545654 C159.352172852,-27.581420898 157.081848145,-31.057556152 154.968078613,-33.190368652 C150.233520508,-37.967773438 149.971679688,-45.221740723 154.375,-49.625030518 C157.964111328,-53.214141846 158.458129883,-55.418304443 156.012268066,-56.929931641 C155.125305176,-57.478088379 138.854980469,-53.058258057 119.856018066,-47.108093262 C75.571105957,-33.238708496 58.371948242,-28.771392822 48.090026855,-28.467559814 C36.397460938,-28.122039795 35.75,-28.239593506 35.75,-30.707885742 C35.75,-35.093261719 60.904663086,-42.922119141 101.509338379,-51.174041748 C153.380310059,-61.715606689 154.375,-61.992614746 154.375,-65.895935059 C154.375,-67.740570068 152.378662109,-70.073913574 149.548217773,-71.537597656 C141.961181641,-75.460968018 138.64855957,-85.248657227 143.325012207,-89.925018311 C144.78338623,-91.383453369 144.80847168,-92.341522217 143.424499512,-93.72555542 C142.040527344,-95.109558105 132.024597168,-89.637695313 103.693237305,-72.019500732 C61.39831543,-45.717895508 59.070983887,-44.417633057 44.417297363,-38.901947021 C35.514648438,-35.551025391 33.892089844,-35.341156006 33.08795166,-37.436798096 C30.993835449,-42.893981934 52.643615723,-56.69519043 97.824401855,-78.704650879 C140.358581543,-99.424835205 140.867492676,-99.750610352 138.27355957,-104.597412109 C137.235229492,-106.537597656 135.055603027,-108.125030518 133.430114746,-108.125030518 C127.733947754,-108.125030518 121.875,-115.501251221 121.875,-122.672454834 C121.875,-126.290100098 121.285339355,-129.250030518 120.564697266,-129.250030518 C119.843933105,-129.250030518 105.879760742,-114.987030029 89.533203125,-97.554473877 C48.217956543,-53.494781494 27.625,-36.441345215 27.625,-46.28729248 C27.625,-51.29788208 47.275939941,-72.420196533 68.799987793,-90.545257568 C117.773986816,-131.785675049 122.373291016,-137.375030518 107.334289551,-137.375030518 C100.492126465,-137.375030518 94.865844727,-142.146270752 92.858886719,-149.650512695 C90.188171387,-159.636901855 87.350097656,-155.672485352 58.617797852,-101.819213867 C41.600524902,-69.923370361 27.217773438,-49.625030518 21.63470459,-49.625030518 C16.252380371,-49.625030518 25.177490234,-69.802246094 41.042358398,-93.500030518 C60.04284668,-121.881713867 80.096008301,-151.160797119 82.309448242,-153.752960205 C86.704101563,-158.899810791 81.285888672,-162.726409912 73.464294434,-159.999816895 C66.824523926,-157.685180664 57.388244629,-161.576660156 55.973754883,-167.212860107 C55.130065918,-170.573852539 50.775878906,-174.34564209 49.573303223,-172.757019043 C49.055297852,-172.072662354 39.682556152,-132.44430542 34.06439209,-107.184661865 C25.596496582,-69.112426758 11.375,-39.124572754 11.375,-59.341339111 C11.375,-66.757080078 15.194213867,-85.430725098 19.025878906,-96.750030518 C20.387268066,-100.771911621 26.853149414,-119.784393311 33.39440918,-139.000030518 C46.429138184,-177.290527344 46.461669922,-178.855010986 34.097045898,-172.737457275 C26.756286621,-169.105560303 20.418395996,-170.21270752 16.782287598,-175.762115479 C15.390197754,-177.88671875 12.773742676,-179.625030518 10.968078613,-179.625030518 L7.684936523,-179.625030518 L9.123779297,-145.093780518 C11.706970215,-83.094512939 10.360351563,-55.944030762 4.647644043,-54.843841553 C-0.812133789,-53.792358398 -2.915039063,-82.52456665 -0.096862793,-119.670288086 C0.743652344,-130.748504639 1.92590332,-148.846740723 2.530456543,-159.88848877 L3.629577637,-179.964508057 L-0.216491699,-178.749145508 C-2.331787109,-178.080688477 -4.997558594,-176.205383301 -6.140441895,-174.581787109 C-9.432067871,-169.905578613 -18.922363281,-168.852233887 -24.10333252,-172.588012695 C-29.261779785,-176.307617188 -34.883056641,-175.804870605 -33.315795898,-171.764129639 C-32.739440918,-170.278259277 -31.260070801,-165.406280518 -30.028259277,-160.937530518 C-25.119018555,-143.126922607 -16.185058594,-114.906768799 -12.525634766,-105.651031494 C-4.758850098,-86.006744385 0.184265137,-54.964874268 -4.206115723,-53.406890869 C-8.658874512,-51.826782227 -18.128967285,-79.193786621 -25.952270508,-116.250030518 C-38.18737793,-174.203491211 -38.571655273,-175.468933105 -42.466186523,-170.641265869 C-51.914245605,-158.929382324 -57.231140137,-156.203430176 -63.225341797,-159.998138428 C-65.806030273,-161.631896973 -73.125,-158.94317627 -73.125,-156.36138916 C-73.125,-154.61605835 -50.512756348,-120.790985107 -34.360839844,-98.375030518 C-12.582946777,-68.151153564 -1.165710449,-36.211181641 -18.671264648,-54.483062744 C-22.33129054,-58.569328089 -28.034606672,-65.341744877 -31.576538086,-72.031097412 C-35.632446289,-78.300964355 -44.731628418,-93.92300415 -51.796875,-106.746704102 C-76.515014648,-151.611022949 -79.379760742,-156.198150635 -80.515808105,-152.731994629 C-84.924316406,-139.281524658 -89.472717285,-134.606536865 -96.447570801,-136.357116699 C-99.140136719,-137.032897949 -101.209411621,-136.310760498 -103.346069336,-133.949798584 L-106.39831543,-130.57711792 L-99.105407715,-124.179962158 C-87.178833008,-113.718231201 -64.963562012,-94.957366943 -52.803649902,-85.077972412 C-46.552246094,-79.99899292 -37.825317383,-72.154907227 -33.410461426,-67.64666748 C-28.597648792,-62.3036611 -24.415097841,-57.33572491 -21.150512695,-52.910919189 C-15.74029541,-45.312927246 -17.882324219,-41.84954834 -25.289001465,-46.219604492 C-29.979386781,-48.230629164 -34.776611828,-51.558932421 -39.747418752,-56.062843296 C-46.353353677,-63.039952573 -58.004841143,-75.083931153 -71.367675781,-88.715545654 L-109.6875,-127.806060791 L-110.581237793,-121.426330566 C-111.866516113,-112.251586914 -115.963012695,-106.841827393 -122.56262207,-105.603729248 C-127.143005371,-104.744445801 -131.448059082,-100.799133301 -129.631958008,-99.125152588 C-128.219238281,-97.822845459 -79.557250977,-73.683502197 -66.307983398,-67.712463379 C-57.643066406,-63.8074646 -47.039978027,-58.18057251 -42.745483398,-55.208251953 L-27.625,-44.80682373 C-9.19519043,-29.477172852 -44.76373291,-39.2394104 -69.0625,-56.179870605 C-87.091796875,-68.749450684 -132.180480957,-95.219512939 -133.431335449,-93.968658447 C-134.237121582,-93.16293335 -134.008911133,-90.328491211 -132.90234375,-87.396820068 C-130.304504395,-80.514312744 -132.646362305,-74.143585205 -139.316650391,-69.947845459 C-149.64263916,-63.452575684 -148.620422363,-63.073822021 -84.367004395,-49.589263916 C-34.108215332,-39.041717529 -10.752563477,-28.500030518 -37.642578125,-28.500030518 C-49.803344727,-28.500030518 -58.495849609,-30.697662354 -101.5625,-44.660217285 C-143.641113281,-58.302490234 -145.52154541,-58.7421875 -146.860839844,-55.25201416 C-147.44909668,-53.719085693 -146.500854492,-50.82824707 -144.629394531,-48.449035645 C-140.035461426,-42.608825684 -140.556640625,-37.193389893 -146.261474609,-31.488494873 C-148.94909668,-28.80090332 -150.734069824,-25.932159424 -150.228149414,-25.113494873 C-149.008422852,-23.140045166 -124.006958008,-23.244903564 -100.75,-25.321105957 C-60.606384277,-28.904693604 -26.960205078,-27.481292725 -27.96270752,-22.241790771 C-29.24395752,-15.545318604 -74.232421875,-13.818939209 -134.46875,-18.154754639 L-149.5,-19.236724854 L-149.5,-15.570983887 C-149.5,-13.55480957 -147.671875,-10.467285156 -145.4375,-8.709716797 C-140.74005127,-5.014709473 -139.933654785,3.098144531 -143.760803223,8.158111572 C-146.411437988,11.662536621 -147.079589844,18.624969482 -144.765319824,18.624969482 C-143.158447266,18.624969482 -109.106567383,7.148193359 -89.375,-0.043701172 C-52.634765625,-13.434997559 -28.41192627,-18.275085449 -26.430053711,-12.621063232 C-24.943237305,-8.379547119 -47.900512695,-0.409179688 -95.051696777,11.203216553 C-145.604492188,23.65335083 -149.936584473,25.642486572 -137.665039063,30.769866943 C-130.775146484,33.648681641 -127.475524902,40.422515869 -129.88104248,46.749542236 C-134.092468262,57.826477051 -130.387817383,56.228881836 -90.783752441,29.889526367 C-43.344238281,-1.660858154 -22.75,-12.128540039 -22.75,-4.690704346 C-22.75,0.094360352 -42.364135742,13.906768799 -70.014770508,28.593322754 C-102.517150879,45.856964111 -126.75,59.280395508 -126.75,60.021057129 C-126.75,63.101379395 -124.082092285,65.749938965 -120.979248047,65.749938965 C-114.383911133,65.749938965 -108.754394531,72.139343262 -108.451538086,79.968688965 C-108.055969238,90.195800781 -113.289611816,94.970581055 -53.663635254,29.985046387 C-29.391906738,3.531585693 -7.47833252,-10.227264404 -20.174804688,8.958435059 C-23.009787655,13.613754036 -26.122908445,17.942109862 -29.513183594,21.941009521 C-31.602783203,24.799102783 -43.184387207,35.93661499 -55.25,46.691070557 C-106.632019043,92.489440918 -108.551818848,94.999938965 -92.190551758,94.999938965 C-86.208618164,94.999938965 -79.625,100.540588379 -79.625,105.574890137 C-79.625,112.128967285 -74.96484375,113.389587402 -72.208496094,107.580993652 C-67.319335938,97.277770996 -32.963181343,32.198482444 -29.305344429,26.404109886 L-18.831420898,11.356689453 C-16.426879883,8.20425415 -13.308532715,5.624969482 -11.901672363,5.624969482 C-4.806274414,5.624969482 -17.399047852,32.430114746 -41.674499512,68.999938965 C-74.884460449,119.02923584 -74.011657715,116.386047363 -57.43762207,116.737548828 L-48.012939453,116.937438965 L-44.725158691,122.15612793 C-41.020202637,128.037231445 -35.75,129.303649902 -35.75,124.312866211 C-35.75,122.559997559 -34.24407959,114.699035645 -32.403503418,106.844116211 C-30.562927246,98.989196777 -26.555236816,80.636047363 -23.497558594,66.059326172 C-16.165039063,31.10369873 -8.532409668,8.874969482 -3.862426758,8.874969482 C1.527404785,8.874969482 -2.592102051,36.328125 -12.211242676,64.512695313 C-20.626403809,89.169616699 -32.5,127.065368652 -32.5,129.266296387 C-32.5,131.756103516 -25.630126953,130.918884277 -22.450744629,128.041625977 C-17.811096191,123.842773438 -9.807800293,124.57598877 -5.820007324,129.565246582 C-0.62902832,136.059814453 3.260009766,135.344848633 3.204589844,127.906188965 C3.179504395,124.554626465 2.151245117,103.415161133 0.919616699,80.929626465 C-1.837097168,30.605529785 0.224853516,5.199829102 6.552368164,11.527404785 C10.673095703,15.648071289 12.009155273,43.099945068 10.018310547,82.74029541 C7.404907227,134.773010254 7.384521484,133.999938965 11.375,133.999938965 C13.162475586,133.999938965 14.625,133.257995605 14.625,132.351074219 C14.625,125.98840332 30.044555664,123.184265137 35.921264648,128.478210449 C38.352722168,130.668640137 43.875,130.124328613 43.875,127.694274902 C43.875,127.098632813 37.985290527,109.078430176 30.786743164,87.649353027 C17.322631836,47.568939209 11.471618652,25.62210083 11.410217285,14.968719482 C11.358520508,6.021087646 15.41192627,7.136749268 19.771057129,17.269927979 C22.099596389,22.256610726 24.400014053,27.980217094 26.618713379,34.363433838 C28.034790039,38.666656494 32.856140137,58.274963379 37.332824707,77.937438965 C49.32434082,130.60736084 48.850891113,129.132568359 52.84552002,126.256286621 C53.757507324,125.59967041 55.353942871,123.124328613 56.393249512,120.755554199 C58.734863281,115.418457031 68.105163574,111.813415527 72.927734375,114.394348145 C76.207763672,116.149841309 81.25,115.206726074 81.25,112.837768555 C81.25,112.114807129 70.41394043,95.191467285 57.16998291,75.230407715 C43.925964355,55.269287109 31.364685059,35.83782959 29.25592041,32.049407959 C24.682813714,23.475368374 24.05031454,20.166930268 22.008117676,15.077514648 C19.351501465,8.438079834 20.455627441,4.015136719 24.192993164,6.324981689 C30.315917969,10.109130859 56.206787109,52.086364746 64.163696289,71.129821777 C65.508605957,74.348632813 70.634460449,83.954833984 75.554443359,92.476989746 C80.474487305,100.999084473 84.5,108.709350586 84.5,109.610839844 C84.5,110.512329102 85.084960938,111.249938965 85.799987793,111.249938965 C88.183227539,111.249938965 91,107.389648438 91,104.123413086 C91,99.092346191 97.37878418,93.382080078 103.06451416,93.323303223 C105.813415527,93.29486084 109.361083984,92.286376953 110.948181152,91.082275391 L113.83380127,88.892883301 L98.760681152,75.220581055 C90.470458984,67.700744629 78.568725586,57.233093262 72.3125,51.959106445 C54.128662109,36.630096436 42.38458252,25.010894775 34.743713379,14.78994751 Q23.403800443,-0.038183476 32.121230558,1.359090542 C37.611519863,3.186867254 41.573740627,6.522538266 45.296200402,10.339839685 C48.067587414,13.1818367 51.634817154,16.769083027 55.567871094,20.656219482 C64.836914063,29.817169189 82.170593262,47.765319824 94.087158203,60.541015625 C115.840637207,83.862915039 119.858398438,86.640563965 118.943481445,77.725280762 C118.330444336,71.751464844 123.384521484,64.914123535 129.558898926,63.364440918 C136.21484375,61.693908691 141.59753418,55.999938965 136.520812988,55.999938965 C133.696533203,55.999938965 60.706115723,17.656890869 50.291259766,10.702148438 C43.946613137,6.46534548 39.234943215,3.064354676 36.15625,0.499176025 Z" style="fill:#0E0E0E;" />
	</g>
</svg>